<svg width="128" height="128" viewBox="0 0 24 24" fill="none" xmlns="http://www.w3.org/2000/svg">
  <circle cx="12" cy="12" r="3" fill="#3B82F6"/>
  <path d="M19.4 13c.04-.33.07-.66.07-1s-.03-.67-.07-1l2.1-1.65a.5.5 0 0 0 .12-.64l-2-3.46a.5.5 0 0 0-.6-.22l-2.48 1a7.92 7.92 0 0 0-1.73-1l-.38-2.65a.5.5 0 0 0-.5-.42h-4a.5.5 0 0 0-.5.42l-.38 2.65a7.92 7.92 0 0 0-1.73 1l-2.48-1a.5.5 0 0 0-.6.22l-2 3.46a.5.5 0 0 0 .12.64L4.6 11c-.04.33-.07.66-.07 1s.03.67.07 1l-2.1 1.65a.5.5 0 0 0-.12.64l2 3.46c.14.24.43.34.69.22l2.48-1c.53.41 1.12.76 1.73 1l.38 2.65a.5.5 0 0 0 .5.42h4c.25 0 .46-.18.5-.42l.38-2.65c.61-.24 1.2-.59 1.73-1l2.48 1c.26.12.55.02.69-.22l2-3.46a.5.5 0 0 0-.12-.64L19.4 13z" fill="#60A5FA"/>
</svg>
